<svg xmlns="http://www.w3.org/2000/svg" viewBox="0 0 640 260" width="640" height="260" role="img" aria-label="三栏布局：左目录 / 中正文 / 右大纲">
  <rect width="640" height="260" fill="#ffffff"/>
  <g font-family="system-ui, -apple-system, 'Noto Sans CJK SC', sans-serif" font-size="13">
    <!-- 顶栏 -->
    <rect x="8" y="8" width="624" height="38" rx="6" fill="#f0f3f7" stroke="#d7dee8"/>
    <text x="24" y="32" fill="#3c4858">☰　站点名</text>
    <text x="616" y="32" fill="#3c4858" text-anchor="end">大纲　　主题</text>
    <!-- 左栏：目录 -->
    <rect x="8" y="54" width="164" height="198" rx="6" fill="#f8fafc" stroke="#d7dee8"/>
    <text x="24" y="78" fill="#7b8794">目录</text>
    <g fill="#a9b4c0">
      <rect x="24" y="90" width="112" height="8" rx="4"/>
      <rect x="32" y="108" width="96" height="8" rx="4"/>
      <rect x="32" y="126" width="104" height="8" rx="4"/>
      <rect x="40" y="144" width="88" height="8" rx="4"/>
      <rect x="40" y="162" width="80" height="8" rx="4"/>
      <rect x="24" y="180" width="100" height="8" rx="4"/>
      <rect x="32" y="198" width="92" height="8" rx="4"/>
    </g>
    <text x="24" y="238" fill="#3c4858">_sidebar.md</text>
    <!-- 中栏：正文 -->
    <rect x="180" y="54" width="308" height="198" rx="6" fill="#ffffff" stroke="#d7dee8"/>
    <text x="196" y="78" fill="#7b8794">正文</text>
    <rect x="196" y="90" width="150" height="11" rx="4" fill="#c8d2dd"/>
    <text x="196" y="126" fill="#a9b4c0" font-size="12">Markdown → DOM</text>
    <rect x="196" y="136" width="276" height="7" rx="3" fill="#e3e9ef"/>
    <rect x="196" y="150" width="250" height="7" rx="3" fill="#e3e9ef"/>
    <rect x="196" y="164" width="262" height="7" rx="3" fill="#e3e9ef"/>
    <rect x="196" y="184" width="140" height="34" rx="4" fill="#f0f3f7" stroke="#d7dee8"/>
    <text x="208" y="205" fill="#7b8794" font-size="12">```js　复制</text>
    <text x="196" y="238" fill="#3c4858">docs/ 里的 .md</text>
    <!-- 右栏：大纲 -->
    <rect x="496" y="54" width="136" height="198" rx="6" fill="#fafbfc" stroke="#d7dee8"/>
    <text x="512" y="78" fill="#7b8794">大纲</text>
    <rect x="512" y="90" width="88" height="8" rx="4" fill="#c8d2dd"/>
    <rect x="520" y="108" width="72" height="8" rx="4" fill="#c8d2dd"/>
    <rect x="520" y="126" width="80" height="8" rx="4" fill="#a9b4c0"/>
    <rect x="520" y="144" width="64" height="8" rx="4" fill="#c8d2dd"/>
    <text x="512" y="238" fill="#3c4858">toc: [2, 3]</text>
  </g>
</svg>
